<svg width="246" height="35" viewBox="0 0 246 35" fill="none" xmlns="http://www.w3.org/2000/svg">
<path d="M150.748 1.92453H157.477V33.6579H150.748V1.92453Z" fill="#464646"/>
<path d="M173.729 10.3069C177.324 10.3069 180.085 11.1623 182.011 12.873C183.938 14.5551 184.901 17.1069 184.901 20.5283V33.6579H178.604V30.7925C177.338 32.9308 174.98 34 171.529 34C169.747 34 168.194 33.7006 166.871 33.1019C165.577 32.5031 164.585 31.6763 163.895 30.6214C163.204 29.5665 162.859 28.369 162.859 27.0289C162.859 24.8906 163.665 23.2084 165.275 21.9824C166.914 20.7564 169.43 20.1434 172.824 20.1434H178.172C178.172 18.6893 177.727 17.5774 176.835 16.8075C175.944 16.0092 174.606 15.6101 172.824 15.6101C171.587 15.6101 170.365 15.8096 169.157 16.2088C167.978 16.5795 166.972 17.0927 166.138 17.7484L163.722 13.0868C164.987 12.2029 166.497 11.5187 168.251 11.034C170.034 10.5493 171.86 10.3069 173.729 10.3069ZM173.212 29.5094C174.362 29.5094 175.383 29.2528 176.274 28.7396C177.166 28.1979 177.798 27.4138 178.172 26.3874V24.0352H173.557C170.796 24.0352 169.416 24.9333 169.416 26.7296C169.416 27.5849 169.747 28.2692 170.408 28.7824C171.098 29.2671 172.033 29.5094 173.212 29.5094Z" fill="#464646"/>
<path d="M205.744 10.3069C208.619 10.3069 210.934 11.1623 212.688 12.873C214.471 14.5836 215.363 17.1212 215.363 20.4855V33.6579H208.634V21.5119C208.634 19.6872 208.231 18.3329 207.426 17.4491C206.621 16.5367 205.456 16.0805 203.932 16.0805C202.235 16.0805 200.884 16.608 199.877 17.6629C198.871 18.6893 198.368 20.2289 198.368 22.2818V33.6579H191.638V10.6491H198.066V13.3434C198.957 12.374 200.064 11.6327 201.387 11.1195C202.71 10.5778 204.162 10.3069 205.744 10.3069Z" fill="#464646"/>
<path d="M246 1.92453V33.6579H239.573V31.0063C237.905 33.0021 235.489 34 232.326 34C230.141 34 228.156 33.5153 226.374 32.5459C224.619 31.5765 223.239 30.1937 222.233 28.3975C221.226 26.6013 220.723 24.5199 220.723 22.1535C220.723 19.787 221.226 17.7057 222.233 15.9094C223.239 14.1132 224.619 12.7304 226.374 11.761C228.156 10.7916 230.141 10.3069 232.326 10.3069C235.288 10.3069 237.603 11.2335 239.271 13.0868V1.92453H246ZM233.491 28.5258C235.188 28.5258 236.597 27.9556 237.718 26.8151C238.84 25.6461 239.4 24.0922 239.4 22.1535C239.4 20.2147 238.84 18.6751 237.718 17.5346C236.597 16.3656 235.188 15.7811 233.491 15.7811C231.765 15.7811 230.342 16.3656 229.22 17.5346C228.099 18.6751 227.538 20.2147 227.538 22.1535C227.538 24.0922 228.099 25.6461 229.22 26.8151C230.342 27.9556 231.765 28.5258 233.491 28.5258Z" fill="#464646"/>
<path d="M70.2575 18.0906C71.9896 18.6323 73.3464 19.5447 74.3279 20.8277C75.3094 22.0822 75.8002 23.6361 75.8002 25.4893C75.8002 28.1124 74.7609 30.1367 72.6824 31.5623C70.6328 32.9593 67.6305 33.6579 63.6755 33.6579H48V3.72075H62.8095C66.5046 3.72075 69.3337 4.41929 71.2967 5.81635C73.2887 7.21342 74.2846 9.10944 74.2846 11.5044C74.2846 12.9585 73.9238 14.2558 73.2021 15.3962C72.5092 16.5367 71.5277 17.4348 70.2575 18.0906ZM54.9717 8.93837V15.995H61.9434C63.6755 15.995 64.989 15.6956 65.8839 15.0969C66.7789 14.4981 67.2263 13.6143 67.2263 12.4453C67.2263 11.2763 66.7789 10.4067 65.8839 9.83648C64.989 9.23774 63.6755 8.93837 61.9434 8.93837H54.9717ZM63.1559 28.4403C65.0035 28.4403 66.3891 28.1409 67.3129 27.5421C68.2656 26.9434 68.7419 26.0168 68.7419 24.7623C68.7419 22.2818 66.8799 21.0415 63.1559 21.0415H54.9717V28.4403H63.1559Z" fill="#A4B375"/>
<path d="M81.2844 10.6491H88.0396V33.6579H81.2844V10.6491ZM84.662 7.44151C83.4207 7.44151 82.4103 7.08512 81.6308 6.37233C80.8514 5.65954 80.4617 4.77568 80.4617 3.72075C80.4617 2.66583 80.8514 1.78197 81.6308 1.06918C82.4103 0.356395 83.4207 0 84.662 0C85.9033 0 86.9137 0.342139 87.6932 1.02642C88.4726 1.71069 88.8623 2.56604 88.8623 3.59246C88.8623 4.7044 88.4726 5.63103 87.6932 6.37233C86.9137 7.08512 85.9033 7.44151 84.662 7.44151Z" fill="#A4B375"/>
<path d="M104.961 24.634L101.714 27.7987V33.6579H94.9585V1.92453H101.714V19.8868L111.587 10.6491H119.641L109.941 20.4L120.507 33.6579H112.323L104.961 24.634Z" fill="#A4B375"/>
<path d="M146 22.239C146 22.3245 145.957 22.9233 145.87 24.0352H128.246C128.564 25.4608 129.314 26.587 130.498 27.4138C131.681 28.2407 133.154 28.6541 134.915 28.6541C136.127 28.6541 137.195 28.483 138.119 28.1409C139.072 27.7702 139.952 27.2 140.76 26.4302L144.355 30.2792C142.161 32.7597 138.956 34 134.741 34C132.114 34 129.79 33.501 127.77 32.5031C125.749 31.4767 124.19 30.0654 123.093 28.2692C121.996 26.473 121.447 24.4344 121.447 22.1535C121.447 19.901 121.982 17.8767 123.05 16.0805C124.147 14.2558 125.633 12.8444 127.51 11.8465C129.415 10.8201 131.537 10.3069 133.875 10.3069C136.156 10.3069 138.22 10.7916 140.068 11.761C141.915 12.7304 143.359 14.1275 144.398 15.9522C145.466 17.7484 146 19.844 146 22.239ZM133.919 15.3535C132.389 15.3535 131.104 15.7811 130.065 16.6365C129.025 17.4918 128.39 18.6608 128.159 20.1434H139.635C139.404 18.6893 138.768 17.5346 137.729 16.6792C136.69 15.7954 135.42 15.3535 133.919 15.3535Z" fill="#A4B375"/>
<path d="M7.74194 34.258C12.0177 34.258 15.4839 30.7919 15.4839 26.5161C15.4839 22.2404 12.0177 18.7742 7.74194 18.7742C3.46618 18.7742 0 22.2404 0 26.5161C0 30.7919 3.46618 34.258 7.74194 34.258Z" fill="#A4B375"/>
<path d="M32.258 34.258C36.5338 34.258 40 30.7919 40 26.5161C40 22.2404 36.5338 18.7742 32.258 18.7742C27.9823 18.7742 24.5161 22.2404 24.5161 26.5161C24.5161 30.7919 27.9823 34.258 32.258 34.258Z" fill="#A4B375"/>
<path fill-rule="evenodd" clip-rule="evenodd" d="M23.5326 6.9054C24.0866 6.9914 24.579 7.30591 24.8899 7.77232L27.737 12.043H31.828C32.9325 12.043 33.828 12.9384 33.828 14.043C33.828 15.1476 32.9325 16.043 31.828 16.043H26.6667C25.998 16.043 25.3735 15.7088 25.0026 15.1524L22.7718 11.8062L17.6179 15.9293L21.1992 19.5105C21.5742 19.8856 21.785 20.3943 21.785 20.9247V27.8065C21.785 28.911 20.8895 29.8065 19.785 29.8065C18.6804 29.8065 17.785 28.911 17.785 27.8065V21.7532L13.2094 17.1777C12.8072 16.7754 12.5953 16.2209 12.6267 15.6528C12.6582 15.0848 12.93 14.5571 13.3743 14.2017L21.9764 7.31999C22.4141 6.96981 22.9787 6.8194 23.5326 6.9054Z" fill="#A4B375"/>
<path d="M28.3871 5.44086C29.3372 5.44086 30.1075 4.6706 30.1075 3.72043C30.1075 2.77026 29.3372 2 28.3871 2C27.4369 2 26.6666 2.77026 26.6666 3.72043C26.6666 4.6706 27.4369 5.44086 28.3871 5.44086Z" fill="#A4B375"/>
<path fill-rule="evenodd" clip-rule="evenodd" d="M28.3871 4C28.5415 4 28.6666 3.87483 28.6666 3.72043C28.6666 3.56603 28.5415 3.44086 28.3871 3.44086C28.2327 3.44086 28.1075 3.56603 28.1075 3.72043C28.1075 3.87483 28.2327 4 28.3871 4ZM24.6666 3.72043C24.6666 1.66569 26.3323 0 28.3871 0C30.4418 0 32.1075 1.66569 32.1075 3.72043C32.1075 5.77517 30.4418 7.44086 28.3871 7.44086C26.3323 7.44086 24.6666 5.77517 24.6666 3.72043Z" fill="#A4B375"/>
<path fill-rule="evenodd" clip-rule="evenodd" d="M9.03223 14.6129C9.03223 15.1652 8.58451 15.6129 8.03223 15.6129L3.58061 15.6129C3.02833 15.6129 2.58061 15.1652 2.58061 14.6129C2.58061 14.0606 3.02833 13.6129 3.58061 13.6129L8.03223 13.6129C8.58451 13.6129 9.03223 14.0606 9.03223 14.6129Z" fill="#A4B375"/>
<path fill-rule="evenodd" clip-rule="evenodd" d="M12.9032 10.7419C12.9032 11.2942 12.4555 11.7419 11.9032 11.7419L7.45159 11.7419C6.8993 11.7419 6.45159 11.2942 6.45159 10.7419C6.45158 10.1897 6.8993 9.74194 7.45158 9.74194L11.9032 9.74194C12.4555 9.74194 12.9032 10.1897 12.9032 10.7419Z" fill="#A4B375"/>
<path fill-rule="evenodd" clip-rule="evenodd" d="M9.03223 6.87097C9.03223 7.42326 8.58451 7.87097 8.03223 7.87097L3.58061 7.87097C3.02833 7.87097 2.58061 7.42326 2.58061 6.87097C2.58061 6.31869 3.02833 5.87097 3.58061 5.87097L8.03223 5.87097C8.58451 5.87097 9.03223 6.31869 9.03223 6.87097Z" fill="#A4B375"/>
</svg>
